<?xml version="1.0" encoding="UTF-8" standalone="no"?>
<!-- Created with Inkscape (http://www.inkscape.org/) -->

<svg
   width="27mm"
   height="20mm"
   viewBox="0 0 27 20"
   version="1.1"
   id="svg1"
   inkscape:version="1.3.2 (091e20e, 2023-11-25)"
   sodipodi:docname="logo.svg"
   xmlns:inkscape="http://www.inkscape.org/namespaces/inkscape"
   xmlns:sodipodi="http://sodipodi.sourceforge.net/DTD/sodipodi-0.dtd"
   xmlns="http://www.w3.org/2000/svg"
   xmlns:svg="http://www.w3.org/2000/svg">
  <sodipodi:namedview
     id="namedview1"
     pagecolor="#ffffff"
     bordercolor="#000000"
     borderopacity="0.25"
     inkscape:showpageshadow="2"
     inkscape:pageopacity="0.0"
     inkscape:pagecheckerboard="0"
     inkscape:deskcolor="#d1d1d1"
     inkscape:document-units="mm"
     inkscape:zoom="4"
     inkscape:cx="75.25"
     inkscape:cy="29.375"
     inkscape:window-width="1868"
     inkscape:window-height="1011"
     inkscape:window-x="52"
     inkscape:window-y="32"
     inkscape:window-maximized="1"
     inkscape:current-layer="layer1" />
  <defs
     id="defs1">
    <inkscape:path-effect
       effect="fillet_chamfer"
       id="path-effect19"
       is_visible="true"
       lpeversion="1"
       nodesatellites_param="F,0,0,1,0,0,0,1 @ F,0,0,1,0,0,0,1 @ F,0,0,1,0,0,0,1 @ F,0,0,1,0,0,0,1 @ F,0,0,1,0,0,0,1 @ F,0,0,1,0,0,0,1 @ F,0,0,1,0,0,0,1 @ F,0,0,1,0,0,0,1 @ F,0,0,1,0,0,0,1 @ F,0,0,1,0,0,0,1 @ F,0,0,1,0,0,0,1 @ F,0,0,1,0,0,0,1 @ F,0,0,1,0,0,0,1 @ F,0,0,1,0,0,0,1 @ F,0,0,1,0,0,0,1 @ F,0,0,1,0,0,0,1 @ F,0,0,1,0,0,0,1 @ F,0,0,1,0,0,0,1 @ F,0,0,1,0,1.6188298,0,1 @ F,0,0,1,0,1.5449635,0,1 @ F,0,0,1,0,0,0,1 @ F,0,0,1,0,0,0,1 @ F,0,0,1,0,0,0,1 @ F,0,0,1,0,0,0,1 @ F,0,0,1,0,0,0,1 @ F,0,0,1,0,0,0,1 @ F,0,0,1,0,0,0,1 @ F,0,0,1,0,0,0,1 @ F,0,0,1,0,0,0,1 @ F,0,0,1,0,0,0,1 @ F,0,0,1,0,0,0,1 @ F,0,0,1,0,0,0,1"
       radius="0"
       unit="px"
       method="auto"
       mode="F"
       chamfer_steps="1"
       flexible="false"
       use_knot_distance="true"
       apply_no_radius="true"
       apply_with_radius="true"
       only_selected="false"
       hide_knots="false" />
    <rect
       x="-19.369564"
       y="-44.085339"
       width="156.65866"
       height="112.83603"
       id="rect18" />
    <rect
       x="-95.689781"
       y="247.20911"
       width="242.47903"
       height="205.44048"
       id="rect1" />
  </defs>
  <g
     inkscape:label="Layer 1"
     inkscape:groupmode="layer"
     id="layer1">
    <rect
       style="fill:#000000;fill-opacity:1;stroke:none;stroke-width:0.652508;stroke-linecap:round;stroke-linejoin:round;stroke-dasharray:none"
       id="rect19"
       width="1.9107988"
       height="0.51107776"
       x="24.323929"
       y="-4.3102942"
       transform="matrix(0.96326132,0.26856587,-0.26781516,0.96347031,0,0)" />
    <rect
       style="fill:#000000;fill-opacity:1;stroke:none;stroke-width:0.452409;stroke-linecap:round;stroke-linejoin:round;stroke-dasharray:none"
       id="rect19-2"
       width="0.91903299"
       height="0.51081169"
       x="18.365358"
       y="18.324141"
       transform="matrix(0.78799913,-0.61567635,0.62670275,0.77925841,0,0)" />
    <rect
       style="fill:#000000;fill-opacity:1;stroke:none;stroke-width:0.452417;stroke-linecap:round;stroke-linejoin:round;stroke-dasharray:none"
       id="rect19-2-6"
       width="0.9198001"
       height="0.5104031"
       x="10.182525"
       y="-24.748539"
       transform="matrix(0.26059164,0.96544912,-0.96106825,0.27631111,0,0)" />
    <path
       id="text19"
       style="font-weight:bold;font-size:27.6633px;font-family:Ubuntu;-inkscape-font-specification:Ubuntu;fill:#00ff00;stroke-width:0.652508;stroke-linecap:round;stroke-linejoin:round;stroke-dasharray:none"
       d="M 20.21838,0 C 18.818887,0 17.603632,0.23037613 16.572426,0.69143066 15.559634,1.134043 14.767674,1.7704599 14.196828,2.6003581 c -0.552432,0.8298981 -0.828673,1.8255572 -0.828673,2.9874145 0,1.1434153 0.248926,2.0659533 0.746115,2.7667562 0.497189,0.7008029 1.141579,1.2725288 1.933398,1.7151412 0.810233,0.42417 1.657338,0.801821 2.541229,1.133781 0.92072,0.313517 1.684849,0.618047 2.292524,0.913122 0.607675,0.295074 1.0588,0.626961 1.35343,0.995805 0.313045,0.350402 0.469548,0.802207 0.469548,1.355473 0,0.700802 -0.25786,1.263582 -0.773463,1.687752 -0.515603,0.405728 -1.417853,0.608232 -2.706861,0.608232 -1.21535,0 -2.246271,-0.128866 -3.093333,-0.387057 -0.847062,-0.25819 -1.528732,-0.534848 -2.044335,-0.829923 l -1.104725,3.015319 c 0.478774,0.276634 1.224522,0.59011 2.237314,0.940512 1.031205,0.331959 2.366199,0.497644 4.005079,0.497644 1.620467,0 2.973842,-0.211967 4.060291,-0.636137 1.104864,-0.442613 1.933587,-1.078512 2.486019,-1.908411 0.552432,-0.829898 0.828673,-1.826074 0.828673,-2.987931 0,-1.235626 -0.230029,-2.222339 -0.690389,-2.960026 C 25.466724,10.751695 24.812884,10.124742 23.947408,9.6268026 23.100346,9.1288637 22.041594,8.6491852 20.771001,8.1881307 20.108083,7.9483823 19.509388,7.7090599 18.975371,7.4693115 18.441353,7.211121 18.018058,6.9160535 17.705014,6.5840942 17.391969,6.252135 17.235467,5.8276848 17.235467,5.3113037 c 0,-0.719245 0.25786,-1.2446887 0.773462,-1.5766479 0.534018,-0.3319593 1.334911,-0.4981608 2.402946,-0.4981608 0.902305,0 1.694265,0.1109732 2.375597,0.3322794 0.139947,0.041668 0.276477,0.085182 0.410208,0.1307414 0.805545,0.2744281 1.657852,-0.030663 1.96023,-0.8283732 l 0.01135,-0.029972 C 25.486097,2.0053204 25.105623,0.97427389 24.264739,0.67747803 24.009624,0.58743347 23.738021,0.49980235 23.449997,0.41496175 22.529278,0.13832903 21.452144,0 20.21838,0 Z m 2.962789,0.94671224 A 0.65630599,0.64518625 0 0 1 23.836986,1.5916341 0.65630599,0.64518625 0 0 1 23.181169,2.2370728 0.65630599,0.64518625 0 0 1 22.524836,1.5916341 0.65630599,0.64518625 0 0 1 23.181169,0.94671224 Z" />
    <path
       style="font-weight:bold;font-size:28.86px;font-family:Ubuntu;-inkscape-font-specification:Ubuntu;fill:#008000;stroke-width:0.681219;stroke-linecap:round;stroke-linejoin:round"
       d="M 0,19.999981 Q 1.5272751,15.728701 2.8240181,12.265501 4.1207611,8.7734407 5.359871,5.8008606 6.6277975,2.7994206 7.9821736,5.0354004e-7 H 11.699503 Q 12.708081,2.1067805 13.659026,4.3290006 q 0.950945,2.19336 1.90189,4.5887401 0.950944,2.3953803 1.959522,5.1370803 1.037395,2.7417 2.161239,5.94516 h -4.207211 q -0.374615,-1.1544 -0.806862,-2.27994 -0.403431,-1.1544 -0.778046,-2.3088 H 5.6768526 q -0.4034311,1.1544 -0.8356788,2.3088 -0.4034311,1.12554 -0.7492292,2.27994 z m 6.6277975,-7.73448 h 6.2819995 q -0.461065,-1.35642 -0.922129,-2.5685403 -0.461064,-1.24098 -0.893311,-2.27994 -0.403432,-1.0678201 -0.74923,-1.9047601 -0.3457979,-0.8658 -0.6051463,-1.50072 -0.2305321,0.63492 -0.5763302,1.50072 -0.3169816,0.83694 -0.7492293,1.9047601 -0.4034311,1.03896 -0.8644953,2.27994 -0.4610641,1.2121203 -0.9221284,2.5685403 z"
       id="text18"
       aria-label="A" />
  </g>
</svg>
